<svg width="92" height="19" viewBox="0 0 92 19" fill="none" xmlns="http://www.w3.org/2000/svg">
<path d="M6.41645 18.0141C9.39468 18.0141 11.4894 16.2438 12.042 13.2923H9.26563C8.91155 14.7316 7.87247 15.4398 6.38666 15.4398C4.50045 15.4398 3.27275 13.9541 3.27275 11.8C3.27275 9.64587 4.50045 8.18664 6.38666 8.18664C7.87247 8.18664 8.91155 8.89475 9.26563 10.3341H12.0552C11.4861 7.29324 9.52705 5.56268 6.48594 5.56268C2.68703 5.56268 0 8.13039 0 11.79C0 15.4497 2.61754 18.0141 6.41645 18.0141Z" fill="#1F4DF5"/>
<path fill-rule="evenodd" clip-rule="evenodd" d="M18.3331 5.62891C19.9579 5.62891 21.3743 6.24436 22.0824 7.32968V6.09066H25.3386V17.5173H22.0824V16.3365C21.3743 17.4218 19.9579 18.0141 18.3331 18.0141C15.1464 18.0141 12.552 15.7078 12.552 11.8364C12.552 7.96499 15.1464 5.62891 18.3331 5.62891ZM18.9685 15.4903C17.0823 15.4903 15.8546 14.0046 15.8546 11.8505C15.8546 9.69639 17.0823 8.23716 18.9685 8.23716C20.8547 8.23716 22.0824 9.72287 22.0824 11.877C22.0824 14.0311 20.8547 15.4903 18.9685 15.4903Z" fill="#1F4DF5"/>
<path fill-rule="evenodd" clip-rule="evenodd" d="M29.6116 7.30649C30.3595 6.21786 31.7328 5.62888 33.3377 5.62888C36.5244 5.62888 39.1188 7.9815 39.1188 11.8529C39.1188 15.7243 36.5244 18.0141 33.3377 18.0141C31.7195 18.0141 30.3429 17.4284 29.6116 16.3596V17.5173H26.3322V0.0599976H29.6116V7.30649ZM29.6857 11.8707C29.6857 14.0248 30.9134 15.5105 32.7996 15.5105C34.6858 15.5105 35.9135 14.0513 35.9135 11.8972C35.9135 9.74308 34.6858 8.25737 32.7996 8.25737C30.9134 8.25737 29.6857 9.7166 29.6857 11.8707Z" fill="#1F4DF5"/>
<path d="M42.5569 3.43689C42.253 3.64638 41.8941 3.7616 41.525 3.76812C41.2748 3.77254 41.0261 3.72683 40.7938 3.6337C40.5614 3.54056 40.35 3.40188 40.1721 3.22581C39.9942 3.04975 39.8533 2.83986 39.7577 2.60851C39.6622 2.37716 39.6139 2.12903 39.6157 1.87873C39.6183 1.50966 39.7298 1.14958 39.9361 0.84354C40.1424 0.537505 40.4344 0.299118 40.7756 0.158216C41.1168 0.0173134 41.4919 -0.0198444 41.8541 0.051393C42.2162 0.12263 42.5493 0.299098 42.8117 0.558709C43.0741 0.818321 43.254 1.14954 43.329 1.51092C43.4041 1.87229 43.3708 2.24777 43.2335 2.59035C43.0961 2.93293 42.8608 3.22739 42.5569 3.43689Z" fill="#1F4DF5"/>
<path d="M43.1434 17.9975V6.10204H39.864V18.0141L43.1434 17.9975Z" fill="#1F4DF5"/>
<path d="M51.4199 5.65588C49.815 5.65588 48.4946 6.24487 47.6442 7.23754L47.6412 5.65588H44.3618V18.014H47.6412V11.0587C47.6412 9.19566 49.0079 8.46786 50.3779 8.46786C51.675 8.46786 52.6678 9.15281 52.6678 10.7345V18.014H55.924V10.0727C55.924 7.39909 54.4147 5.65588 51.4199 5.65588Z" fill="#1F4DF5"/>
<path d="M70.033 11.6925L69.9999 12.4866H61.1942C61.191 12.8806 61.2684 13.2711 61.4215 13.6342C61.5747 13.9972 61.8004 14.3251 62.0849 14.5978C62.3694 14.8705 62.7066 15.0821 63.0758 15.2198C63.445 15.3575 63.8385 15.4183 64.232 15.3984C64.7801 15.412 65.3211 15.2722 65.7939 14.9947C66.2433 14.7106 66.5909 14.2912 66.7867 13.7969L69.9271 13.8432C69.8158 14.4975 69.5645 15.1201 69.1904 15.6683C68.8164 16.2166 68.3283 16.6776 67.7596 17.0198C66.7141 17.6953 65.4897 18.0412 64.2453 18.0125C62.3061 18.0125 60.7618 17.472 59.6125 16.3911C58.4631 15.3102 57.8961 13.8046 57.9115 11.8744C57.9115 9.96631 58.4862 8.46297 59.6356 7.36441C60.785 6.26586 62.2907 5.71437 64.1526 5.70996C65.9175 5.70996 67.3382 6.21181 68.4148 7.21551C69.4914 8.21921 70.0308 9.71152 70.033 11.6925ZM64.1758 8.04604C62.5565 8.04604 61.5935 8.8115 61.2869 10.3292H66.7404C66.6984 9.67997 66.4038 9.07301 65.9197 8.63834C65.4299 8.2351 64.8098 8.02449 64.1758 8.04604Z" fill="#1F4DF5"/>
<path fill-rule="evenodd" clip-rule="evenodd" d="M76.3109 5.62891C77.9357 5.62891 79.352 6.24436 80.0601 7.32968V6.09066H83.3164V17.5173H80.0601V16.3365C79.352 17.4218 77.9357 18.0141 76.3109 18.0141C73.1242 18.0141 70.5298 15.7078 70.5298 11.8364C70.5298 7.96499 73.1242 5.62891 76.3109 5.62891ZM76.9462 15.4903C75.06 15.4903 73.8323 14.0046 73.8323 11.8505C73.8323 9.69639 75.06 8.23716 76.9462 8.23716C78.8325 8.23716 80.0601 9.72287 80.0601 11.877C80.0601 14.0311 78.8325 15.4903 76.9462 15.4903Z" fill="#1F4DF5"/>
<path d="M92 18.0141V15.4199H90.9378C90.0178 15.4199 89.4288 14.9236 89.4288 13.792V8.35873H92V6.09065H89.4288V2.53028H86.5498V4.23105C86.5658 4.47573 86.5302 4.72105 86.4451 4.95104C86.36 5.18102 86.2275 5.39053 86.0562 5.56593C85.8848 5.74134 85.6784 5.87871 85.4505 5.96911C85.2225 6.05952 84.9781 6.10093 84.7331 6.09065H83.8132V8.35873H86.1494V14.2618C86.1494 16.6475 87.4731 18.0141 89.7895 18.0141H92Z" fill="#1F4DF5"/>
</svg>
